<svg width="210" height="62" viewBox="0 0 210 62" fill="none" xmlns="http://www.w3.org/2000/svg">
<path d="M118.206 59.3001L114.061 47.5863H94.3592L90.3526 59.3001H79.0508L99.6925 0.786069H108.604L129.481 59.3001H118.206ZM104.169 13.2773L97.2607 39.7307H111.077L104.169 13.2773ZM151.295 10.7236V59.3013H141.099V10.7236H122.834V1.61872H170.376V10.7236H151.295ZM174.286 56.1228L178.044 46.9348C181.466 49.5534 185.613 51.0377 189.912 51.1819C195.89 51.1819 198.884 49.0814 198.893 44.8807C198.842 42.8416 198.096 40.8819 196.779 39.329C195.398 37.5386 192.455 35.5401 188.061 33.3192C184.881 31.874 181.892 30.0371 179.163 27.851C177.643 26.418 176.442 24.6771 175.64 22.7435C174.803 20.668 174.385 18.4458 174.411 16.2065C174.364 14.1098 174.777 12.0284 175.619 10.1097C176.462 8.19091 177.714 6.48169 179.288 5.10305C182.725 2.1012 187.17 0.523513 191.722 0.689356C198.354 0.689356 203.227 1.93845 206.34 4.43667L203.245 13.2637C199.982 10.7936 196.015 9.44105 191.929 9.40521C190.941 9.34194 189.951 9.47488 189.015 9.79638C188.078 10.1179 187.214 10.6217 186.472 11.2789C185.823 11.9043 185.315 12.6605 184.979 13.4979C184.643 14.3353 184.488 15.2346 184.523 16.1367C184.523 19.4399 188.166 22.8772 195.452 26.4486C198.441 27.7983 201.23 29.5542 203.742 31.667C205.41 33.2229 206.733 35.1146 207.624 37.2187C208.552 39.4613 209.022 41.8684 209.006 44.2969C209.043 46.5189 208.562 48.7187 207.603 50.7211C206.643 52.7235 205.231 54.4731 203.48 55.8304C199.796 58.856 194.877 60.3688 188.724 60.3688C183.602 60.3984 178.583 58.9221 174.286 56.1218L174.286 56.1228Z" fill="#EFFCF6"/>
<path d="M1.50317 30.6515C1.50317 48.1808 3.90724 59.7974 6.47699 59.7974C9.04674 59.7974 11.4508 48.1808 11.4508 30.6515C11.4508 13.1222 13.841 1.50562 16.411 1.50562C18.981 1.50562 21.3848 13.1362 21.3848 30.6515C21.3848 48.1668 23.7889 59.7974 26.3586 59.7974C28.9284 59.7974 31.3188 48.1808 31.3188 30.6515C31.3188 13.1222 33.7229 1.50562 36.2926 1.50562C38.8625 1.50562 41.2664 13.1362 41.2664 30.6515C41.2664 48.1668 43.6705 59.7974 46.2266 59.7974C48.7827 59.7974 51.2005 48.1808 51.2005 30.6515C51.2005 13.1222 53.6045 1.50562 56.1743 1.50562C58.7441 1.50562 61.1345 13.1362 61.1345 30.6515C61.1345 48.1668 63.5385 59.7974 66.1083 59.7974C68.6781 59.7974 71.0821 48.1808 71.0821 30.6515C71.0821 13.1222 73.4861 1.50562 76.0423 1.50562C78.5984 1.50562 81.0161 13.1362 81.0161 30.6515" stroke="#EFFCF6" stroke-width="2.99997"/>
</svg>
