<svg width="178" height="23" viewBox="0 0 178 23" fill="none" xmlns="http://www.w3.org/2000/svg">
<path d="M9.42969 18.2646L15.5234 0.671875H18.5996L10.6895 22H8.19922L0.303711 0.671875H3.36523L9.42969 18.2646ZM37.8623 22H35.0352V12.1416H24.2832V22H21.4707V0.671875H24.2832V9.8418H35.0352V0.671875H37.8623V22ZM54.6201 12.5811H45.6699V22H42.8574V0.671875H56.0703V2.98633H45.6699V10.2812H54.6201V12.5811ZM74.7031 13.3721H69.6934V22H66.8662V0.671875H73.9268C76.3291 0.671875 78.1748 1.21875 79.4639 2.3125C80.7627 3.40625 81.4121 4.99805 81.4121 7.08789C81.4121 8.41602 81.0508 9.57324 80.3281 10.5596C79.6152 11.5459 78.6191 12.2832 77.3398 12.7715L82.3496 21.8242V22H79.332L74.7031 13.3721ZM69.6934 11.0723H74.0146C75.4111 11.0723 76.5195 10.7109 77.3398 9.98828C78.1699 9.26562 78.585 8.29883 78.585 7.08789C78.585 5.76953 78.1895 4.75879 77.3984 4.05566C76.6172 3.35254 75.4844 2.99609 74 2.98633H69.6934V11.0723ZM91.5195 22.293C89.3711 22.293 87.623 21.5898 86.2754 20.1836C84.9277 18.7676 84.2539 16.8779 84.2539 14.5146V14.0166C84.2539 12.4443 84.5518 11.043 85.1475 9.8125C85.7529 8.57227 86.5928 7.60547 87.667 6.91211C88.751 6.20898 89.9229 5.85742 91.1826 5.85742C93.2432 5.85742 94.8447 6.53613 95.9873 7.89355C97.1299 9.25098 97.7012 11.1943 97.7012 13.7236V14.8516H86.9639C87.0029 16.4141 87.457 17.6787 88.3262 18.6455C89.2051 19.6025 90.3184 20.0811 91.666 20.0811C92.623 20.0811 93.4336 19.8857 94.0977 19.4951C94.7617 19.1045 95.3428 18.5869 95.8408 17.9424L97.4961 19.2314C96.168 21.2725 94.1758 22.293 91.5195 22.293ZM91.1826 8.08398C90.0889 8.08398 89.1709 8.48438 88.4287 9.28516C87.6865 10.0762 87.2275 11.1895 87.0518 12.625H94.9912V12.4199C94.9131 11.043 94.542 9.97852 93.8779 9.22656C93.2139 8.46484 92.3154 8.08398 91.1826 8.08398ZM107.208 20.0811C108.175 20.0811 109.02 19.7881 109.742 19.2021C110.465 18.6162 110.865 17.8838 110.943 17.0049H113.507C113.458 17.9131 113.146 18.7773 112.569 19.5977C111.993 20.418 111.222 21.0723 110.255 21.5605C109.298 22.0488 108.282 22.293 107.208 22.293C105.05 22.293 103.331 21.5752 102.052 20.1396C100.782 18.6943 100.147 16.7217 100.147 14.2217V13.7676C100.147 12.2246 100.431 10.8525 100.997 9.65137C101.563 8.4502 102.374 7.51758 103.429 6.85352C104.493 6.18945 105.748 5.85742 107.193 5.85742C108.971 5.85742 110.445 6.38965 111.617 7.4541C112.799 8.51855 113.429 9.90039 113.507 11.5996H110.943C110.865 10.5742 110.475 9.73438 109.771 9.08008C109.078 8.41602 108.219 8.08398 107.193 8.08398C105.816 8.08398 104.747 8.58203 103.985 9.57812C103.233 10.5645 102.857 11.9951 102.857 13.8701V14.3828C102.857 16.209 103.233 17.6152 103.985 18.6016C104.737 19.5879 105.812 20.0811 107.208 20.0811ZM123.131 22.293C120.982 22.293 119.234 21.5898 117.887 20.1836C116.539 18.7676 115.865 16.8779 115.865 14.5146V14.0166C115.865 12.4443 116.163 11.043 116.759 9.8125C117.364 8.57227 118.204 7.60547 119.278 6.91211C120.362 6.20898 121.534 5.85742 122.794 5.85742C124.854 5.85742 126.456 6.53613 127.599 7.89355C128.741 9.25098 129.312 11.1943 129.312 13.7236V14.8516H118.575C118.614 16.4141 119.068 17.6787 119.938 18.6455C120.816 19.6025 121.93 20.0811 123.277 20.0811C124.234 20.0811 125.045 19.8857 125.709 19.4951C126.373 19.1045 126.954 18.5869 127.452 17.9424L129.107 19.2314C127.779 21.2725 125.787 22.293 123.131 22.293ZM122.794 8.08398C121.7 8.08398 120.782 8.48438 120.04 9.28516C119.298 10.0762 118.839 11.1895 118.663 12.625H126.603V12.4199C126.524 11.043 126.153 9.97852 125.489 9.22656C124.825 8.46484 123.927 8.08398 122.794 8.08398ZM135.406 22H132.696V6.15039H135.406V22ZM132.477 1.94629C132.477 1.50684 132.608 1.13574 132.872 0.833008C133.146 0.530273 133.546 0.378906 134.073 0.378906C134.601 0.378906 135.001 0.530273 135.274 0.833008C135.548 1.13574 135.685 1.50684 135.685 1.94629C135.685 2.38574 135.548 2.75195 135.274 3.04492C135.001 3.33789 134.601 3.48438 134.073 3.48438C133.546 3.48438 133.146 3.33789 132.872 3.04492C132.608 2.75195 132.477 2.38574 132.477 1.94629ZM144.986 18.3232L148.912 6.15039H151.681L145.997 22H143.932L138.189 6.15039H140.958L144.986 18.3232ZM160.66 22.293C158.512 22.293 156.764 21.5898 155.416 20.1836C154.068 18.7676 153.395 16.8779 153.395 14.5146V14.0166C153.395 12.4443 153.692 11.043 154.288 9.8125C154.894 8.57227 155.733 7.60547 156.808 6.91211C157.892 6.20898 159.063 5.85742 160.323 5.85742C162.384 5.85742 163.985 6.53613 165.128 7.89355C166.271 9.25098 166.842 11.1943 166.842 13.7236V14.8516H156.104C156.144 16.4141 156.598 17.6787 157.467 18.6455C158.346 19.6025 159.459 20.0811 160.807 20.0811C161.764 20.0811 162.574 19.8857 163.238 19.4951C163.902 19.1045 164.483 18.5869 164.981 17.9424L166.637 19.2314C165.309 21.2725 163.316 22.293 160.66 22.293ZM160.323 8.08398C159.229 8.08398 158.312 8.48438 157.569 9.28516C156.827 10.0762 156.368 11.1895 156.192 12.625H164.132V12.4199C164.054 11.043 163.683 9.97852 163.019 9.22656C162.354 8.46484 161.456 8.08398 160.323 8.08398ZM177.652 8.58203C177.242 8.51367 176.798 8.47949 176.319 8.47949C174.542 8.47949 173.336 9.23633 172.701 10.75V22H169.991V6.15039H172.628L172.672 7.98145C173.561 6.56543 174.82 5.85742 176.451 5.85742C176.979 5.85742 177.379 5.92578 177.652 6.0625V8.58203Z" fill="#EFFCF6"/>
</svg>
