<svg width="16" height="16" viewBox="0 0 16 16" fill="none" xmlns="http://www.w3.org/2000/svg">
<g clip-path="url(#clip0_7516_68)">
<path d="M14.6667 2H4.66667C4.20667 2 3.84667 2.23333 3.60667 2.58667L0 8L3.60667 13.4067C3.84667 13.76 4.20667 14 4.66667 14H14.6667C15.4 14 16 13.4 16 12.6667V3.33333C16 2.6 15.4 2 14.6667 2ZM12.6667 10.3933L11.7267 11.3333L9.33333 8.94L6.94 11.3333L6 10.3933L8.39333 8L6 5.60667L6.94 4.66667L9.33333 7.06L11.7267 4.66667L12.6667 5.60667L10.2733 8L12.6667 10.3933Z" fill="#F5F7FA"/>
</g>
<defs>
<clipPath id="clip0_7516_68">
<rect width="16" height="16" fill="white"/>
</clipPath>
</defs>
</svg>
